<svg xmlns="http://www.w3.org/2000/svg" id="Layer_2" viewBox="0 0 150.13 250.38"><defs><style>.cls-1{fill:#ebae20;}.cls-2{fill:#060707;}</style></defs><g id="Layer_1-2"><path class="cls-1" d="m41,166.88c0,1.28003.06,2.54999.16998,3.81v-7.62c-.10999,1.26001-.16998,2.52997-.16998,3.81Z"/><path class="cls-2" d="m150.13,116.54999c-13.03998,6.89001-23.14001,18.60004-27.91998,32.76001-6.68005-14.70001-21.5-24.92999-38.71002-24.92999-22.19,0-40.40997,17.01001-42.33002,38.69v-68.16998c12.41003-7.33002,26.88-11.52002,42.33002-11.52002,14.54999,0,28.21997,3.71997,40.13,10.26001,10.37,5.70001,19.40997,13.52997,26.5,22.90997Z"/><circle class="cls-1" cx="83.5" cy="166.88" r="22"/><path class="cls-1" d="m0,166.88c0,1.77002.06,3.53003.16998,5.28003v-10.56006c-.10999,1.75-.16998,3.51001-.16998,5.28003Zm41,0c0,1.28003.06,2.54999.16998,3.81v-7.62c-.10999,1.26001-.16998,2.52997-.16998,3.81Z"/><path class="cls-1" d="m83.5,188.88c-12.15002,0-22-9.84998-22-22s9.84998-22,22-22,22,9.84998,22,22-9.84998,22-22,22Z"/><path class="cls-1" d="m149.03998,218.60999c-15.27997,19.35004-38.95996,31.77002-65.53998,31.77002-18.07001,0-34.81-5.73999-48.47003-15.5C15.15997,220.69,1.77997,198.02002.16998,172.16003v-88.28003h41v79.19c-.10999,1.26001-.16998,2.52997-.16998,3.81s.06,2.54999.16998,3.81c1.92004,21.67999,20.14001,38.69,42.33002,38.69,16.89001,0,31.47998-9.84998,38.33002-24.10999,4.47998,14.28998,14.33997,26.19,27.20996,33.33997Z"/><path class="cls-1" d="m41.16998,163.07001v7.62c-.10999-1.26001-.16998-2.52997-.16998-3.81s.06-2.54999.16998-3.81Z"/><path class="cls-1" d="m69.16998,9.88c0,32.40997-25.27997,58.91998-57.20001,60.88-.52997-3.22003-.79999-6.52002-.79999-9.88C11.16998,28.47003,36.45001,1.96002,68.37,0c.53003,3.22003.79999,6.52002.79999,9.88Z"/></g></svg>